<?xml version="1.0" encoding="utf-8"?>
<!-- Generator: Adobe Illustrator 16.0.0, SVG Export Plug-In . SVG Version: 6.00 Build 0)  -->
<!DOCTYPE svg PUBLIC "-//W3C//DTD SVG 1.1//EN" "http://www.w3.org/Graphics/SVG/1.1/DTD/svg11.dtd">
<svg version="1.1" id="Ebene_1" xmlns="http://www.w3.org/2000/svg" x="0px" y="0px"
     width="497.345px" height="143.363px" viewBox="0 0 497.345 143.363" enable-background="new 0 0 497.345 143.363"
     xml:space="preserve">
<g>
	<path display="none" fill-rule="evenodd" clip-rule="evenodd" d="M-17.174,154.518c0.985-0.016,1.97-0.043,2.955-0.043
		c170.759-0.002,341.517-0.002,512.275-0.002c0.916,0,1.83,0,3.045,0c0-0.818,0-1.551,0-2.285c0-53.322,0-106.644,0.002-159.965
		c0-0.761,0.032-1.522,0.049-2.283c0.131,0.469,0.377,0.938,0.378,1.407c0.021,12.074,0.017,24.148,0.017,36.222
		c0,42.434,0,84.868,0,127.302c-172.315,0-344.63,0.002-516.945-0.014C-15.99,154.855-16.582,154.635-17.174,154.518z"/>
    <path fill-rule="evenodd" clip-rule="evenodd" d="M191.353,40.018c-2.644,6.501-5.194,13.018-4.887,20.038
		c2.013,0.539,2.807-0.742,3.605-1.695c1.602-1.907,2.903-4.018,4.538-5.9c2.83-3.261,5.201-6.755,6.96-10.551
		c0.677-1.461,0.86-3.101,1.322-4.646c0.229-0.767,0.579-1.503,0.874-2.254c0.199-0.013,0.398-0.025,0.597-0.038
		c0.292,0.509,0.833,1.019,0.836,1.529c0.025,5.089,2.567,9.564,4.281,14.239c0.13,0.355,0.541,0.628,0.959,1.092
		c0.449-0.569,0.956-1.062,1.272-1.639c1.124-2.046,2.895-3.331,5.322-4.044c1.257-0.369,1.979-1.157,2.673-2.378
		c1.957-3.451,4.537-6.596,8.543-8.5c1.564-0.743,4.538-0.452,5.139,0.773c0.39,0.797,0.279,2.127-0.243,2.856
		c-0.688,0.96-1.919,1.687-3.062,2.298c-2.515,1.343-5.133,2.529-7.682,3.821c-1.354,0.685-2.375,1.574-1.97,3.175
		c0.535,2.109,0.566,4.364,2.275,6.123c1.282,1.32,3.143,1.467,4.799,0.424c3.182-2.003,4.992-4.966,6.979-7.816
		c0.496-0.71,1.188-1.312,2.039-1.789c-2.162,4.237-4.157,8.614-8.694,11.294c-3.838,2.268-6.216,0.208-7.536-3.27
		c-0.747-1.966-1.179-4.027-1.748-6.034c-3.451,0.748-5.601,2.892-7.277,5.511c-0.202,0.315-0.388,0.821-0.245,1.103
		c1.972,3.895-0.586,5.608-3.856,7.204c-1.838,0.896-3.71,1.755-5.643,2.47c-0.699,0.259-1.618,0.048-2.437,0.052
		c0.314-0.622,0.48-1.363,0.968-1.846c2.555-2.535,5.09-5.097,7.842-7.455c1.244-1.066,0.772-1.972,0.351-2.958
		c-1.369-3.199-2.814-6.371-4.174-9.426c-1.803,2.695-3.691,5.684-5.769,8.564c-1.165,1.617-2.684,3.026-3.964,4.582
		c-1.387,1.687-2.591,3.498-4.056,5.125c-0.681,0.756-1.729,1.307-2.718,1.772c-1.773,0.833-2.67,0.407-2.702-1.405
		c-0.029-1.608,0.32-3.222,0.489-4.834c0.076-0.727,0.118-1.456-0.239-2.323c-1.649,2.248-3.299,4.496-4.945,6.744
		c-0.034,0.047-0.021,0.136-0.063,0.163c-1.152,0.734-2.32,2.067-3.464,2.052c-1.727-0.022-1.94-1.888-2-3.111
		c-0.135-2.767,0.073-5.548,0.146-8.467c-1.089,1.639-2.146,3.317-3.296,4.943c-1.873,2.646-3.576,5.427-5.797,7.822
		c-1.418,1.528-3.654,2.448-5.495,3.673c-0.786,0.523-1.611,1.05-2.23,1.715c-1.705,1.832-3.729,3.194-6.427,3.443
		c-2.262,0.208-3.72-0.901-3.869-2.961c-0.146-2.015-0.031-4.045-0.031-6.471c-2.856,2.048-5.529,3.642-7.199,6.333
		c-1.757,2.831-3.794,5.53-5.856,8.195c-0.462,0.598-1.757,1.287-2.286,1.096c-0.797-0.289-1.735-1.297-1.772-2.033
		c-0.111-2.188-0.076-4.438,0.381-6.583c0.949-4.445,2.231-8.833,3.308-13.258c0.134-0.548-0.151-1.178-0.242-1.769
		c-0.209-0.104-0.418-0.208-0.627-0.312c-1.684,1.352-3.709,2.488-4.985,4.097c-3.32,4.188-6.235,8.646-8.006,13.554
		c-1.123,3.113-1.714,6.38-2.574,9.571c-0.241,0.892-0.501,1.797-0.927,2.624c-0.176,0.344-0.81,0.499-1.235,0.739
		c-0.242-0.108-0.483-0.217-0.726-0.325c0.5-2.175,0.754-4.422,1.549-6.508c1.857-4.872,3.79-9.684,3.675-14.954
		c-0.041-1.882,0.453-3.774,0.463-5.775c-4.744,3.892-8.247,8.589-11.704,13.349c-3.477,4.787-7.201,9.433-10.99,14.364
		c-0.71-0.047-1.002-0.732-0.75-1.756c0.47-1.908,1.003-3.808,1.376-5.732c0.664-3.425,1.231-6.865,1.825-10.3
		c0.037-0.213-0.048-0.442-0.1-0.851c-6.318,6.449-11.787,13.201-16.437,20.977c-0.302-0.593-0.928-1.226-0.846-1.773
		c0.288-1.936,0.873-3.834,1.245-5.762c0.714-3.696,1.359-7.402,2.032-11.104c-0.148-0.063-0.296-0.127-0.445-0.19
		c-0.876,1.105-1.825,2.172-2.613,3.326c-1.227,1.795-2.207,3.734-3.544,5.457c-1.594,2.051-3.985,3.37-6.451,4.439
		c-1.181,0.512-1.833-0.617-1.872-1.441c-0.076-1.615,0.135-3.244,0.28-4.863c0.076-0.843,0.263-1.678,0.4-2.517
		c-0.153-0.058-0.306-0.114-0.458-0.171c-1.652,2.234-3.258,4.498-4.98,6.689c-0.6,0.766-1.433,1.408-2.253,2.005
		c-1.3,0.944-2.19,0.323-2.64-0.817c-1.205-3.062-0.937-6.182-0.273-9.301c0.076-0.358,0.094-0.727-0.255-1.224
		c-0.987,1.561-1.864,3.189-2.982,4.672c-3.053,4.047-6.237,8.016-9.311,12.051c-2.071,2.719-4.065,5.485-6.042,8.26
		c-0.365,0.512-0.585,1.146-0.705,1.75c-1.061,5.348-1.72,10.783-3.224,16.027c-1.355,4.729-3.282,9.391-5.598,13.814
		c-1.811,3.457-4.573,6.525-6.972,9.73c-1.312,1.754-3.399,1.238-5.16,0.963c-0.528-0.082-1.21-1.539-1.106-2.287
		c0.323-2.344,0.805-4.699,1.564-6.961c1.119-3.33,2.133-6.766,3.901-9.832c3.306-5.732,7.041-11.273,10.751-16.812
		c2.478-3.699,4.899-7.277,5.062-11.844c0.15-4.227,1.006-8.434,1.591-12.645c0.101-0.729,0.4-1.436,0.608-2.152
		c-0.149-0.093-0.298-0.186-0.447-0.278c-1.057,1.169-2.165,2.303-3.162,3.511c-3.915,4.74-8.591,8.832-13.882,12.29
		c-3.421,2.235-7.121,4.199-10.916,5.891c-2.902,1.294-6.149,1.892-9.64-0.128c0.673-0.299,1.279-0.787,1.578-0.668
		c2.745,1.104,5.322,0.504,7.878-0.463c8.243-3.117,14.788-8.148,20.304-14.338c2.378-2.668,4.841-5.281,7.094-8.031
		c0.706-0.861,1.183-2.086,1.197-3.15c0.131-9.375,0.076-18.752,0.205-28.127c0.047-3.433,0.227-6.889,0.743-10.287
		c0.44-2.902,1.548-5.674,4.929-7.073c2.479-1.026,4.651-0.733,5.861,1.378c1.415,2.471,2.59,5.123,3.31,7.815
		c0.67,2.509,0.848,5.177,0.813,7.771c-0.063,4.708-1.248,9.277-3.446,13.553c-2.1,4.083-4.498,8.044-6.804,12.04
		c-0.465,0.804-0.98,1.646-1.698,2.262c-2.581,2.215-2.558,5.166-2.886,7.97c-0.455,3.886-0.627,7.798-1.006,11.692
		c-0.1,1.031-0.513,2.039-0.783,3.058c0.197,0.081,0.394,0.161,0.59,0.24c2.159-2.816,4.339-5.62,6.467-8.456
		c0.983-1.311,1.733-2.773,2.817-4.008c4.497-5.125,7.567-10.941,10.455-16.848c0.274-0.56-0.031-1.359,0.277-1.887
		c0.292-0.502,1.037-0.794,1.583-1.178c0.234,0.472,0.704,0.965,0.654,1.413c-0.107,0.964-0.315,1.974-0.774,2.842
		c-2.455,4.633-2.331,9.563-2.203,14.492c0.015,0.545,0.449,1.082,0.689,1.625c0.697-0.314,1.68-0.463,2.046-0.969
		c3.613-4.979,7.084-10.04,9.471-15.611c0.434-1.012,0.585-2.122,1.033-3.127c0.176-0.396,0.806-0.632,1.568-0.777
		c-2.244,6.662-4.855,13.162-4.584,20.178c1.528,0.652,2.335-0.157,3.016-0.986c1.622-1.974,3.169-3.996,4.739-6.004
		c1.808-2.313,3.782-4.543,5.344-6.982c0.927-1.448,1.477-3.197,1.719-4.867c1.687-11.595,0.397-23.256,0.84-34.88
		c0.135-3.548,0.38-7.11,0.938-10.619c0.247-1.554,1.177-3.125,2.182-4.459c2.236-2.969,4.333-2.377,6.405-0.725
		c2.069,1.651,3.615,3.824,5.052,5.397c0.566-1.66,1.087-3.891,2.082-5.938c1.552-3.191,4.398-3.646,7.417-1.442
		c3.269,2.386,4.793,5.559,5.236,9.207c0.287,2.366,0.807,4.757,0.663,7.109c-0.409,6.696-1.773,13.192-5.205,19.305
		c-3.522,6.272-6.767,12.674-9.925,19.101c-1.022,2.08-1.526,4.39-2.028,6.637c-0.658,2.952-1.086,5.944-1.592,8.922
		c-0.054,0.318,0.033,0.656,0.08,1.389c3.458-4.488,6.555-8.728,9.91-12.8c3.082-3.741,6.375-7.351,9.719-10.91
		c0.893-0.951,1.445-1.781,1.438-3.042c-0.031-5.509-0.159-11.025,0.125-16.523c0.239-4.639,0.633-9.319,1.631-13.864
		c0.918-4.179,2.575-8.292,6.104-11.447c3.25-2.906,6.908-3.162,9.585-0.452c3.553,3.598,4.612,7.849,3.388,12.551
		c-0.41,1.573-0.618,3.188-0.98,4.772c-1.1,4.809-3.184,9.312-6.316,13.296c-3.398,4.322-7.291,8.334-10.884,12.539
		c-0.568,0.666-0.929,1.622-0.977,2.462c-0.131,2.312-0.045,4.633-0.045,7.369c1.741-2.344,3.155-4.377,4.718-6.314
		c1.535-1.901,3.244-3.66,5.958-4.327c1.625-0.399,2.563,0.118,2.768,1.57c0.447,3.173-0.9,6.049-1.822,8.992
		c-1.167,3.728-2.419,7.439-2.125,11.375c0.033,0.447,0.391,0.875,0.598,1.312c0.539-0.247,1.276-0.372,1.583-0.763
		c1.645-2.096,3.424-4.15,4.694-6.425c1.557-2.786,4.272-4.53,6.515-6.71c1.482-1.442,2.628-3.155,3.988-4.701
		c0.299-0.339,0.869-0.489,1.485-0.817c1.683,0.807,0.034,2.08-0.19,3.056c-0.46,2.003-1.592,3.895-1.937,5.901
		c-0.22,1.281,0.151,2.861,0.892,3.969c0.416,0.622,2.116,0.692,3.253,0.748c0.61,0.029,1.287-0.454,1.877-0.785
		c2.695-1.511,2.689-2.199,1.027-4.694c-2.974-4.463-3.617-9.295-1.598-14.175c0.383-0.925,2.213-1.682,3.513-1.921
		c1.697-0.312,3.334,0.51,4.201,1.877c1.763,2.779,0.952,5.82,0.59,8.73c-0.226,1.812-1.119,3.56-1.449,5.615
		c0.956-0.823,2.033-1.56,2.847-2.482c4.691-5.317,8.502-11.116,11.555-17.302c0.636-1.29,0.859-2.741,1.471-4.043
		c0.288-0.613,1.046-1.051,1.592-1.568c0.23,0.637,0.757,1.325,0.631,1.899c-0.269,1.22-0.889,2.377-1.345,3.566
		c-1.741,4.541-1.77,9.24-1.541,13.952c0.017,0.345,0.643,0.991,0.789,0.949c0.683-0.194,1.542-0.439,1.894-0.923
		c1.761-2.433,3.485-4.896,5.022-7.443c1.574-2.61,2.967-5.312,4.334-8.016c0.522-1.033,0.674-2.213,1.161-3.265
		c0.189-0.411,0.836-0.653,1.273-0.972C190.93,39.762,191.142,39.89,191.353,40.018z M122.616,52.85
		c1.684-1.771,3.071-3.153,4.364-4.602c5.618-6.297,10.177-13.076,12.146-21.06c1.082-4.381,1.304-8.724-0.13-13.072
		c-0.8-2.426-3.587-3.826-6.19-3.137c-3.601,0.953-4.966,3.678-6.337,6.362c-2.566,5.026-3.417,10.45-3.759,15.848
		C122.309,39.543,122.616,45.933,122.616,52.85z M103.459,57.862c0.264,0.081,0.528,0.162,0.792,0.243
		c1.766-3.255,3.505-6.521,5.306-9.761c2.769-4.985,5.508-10.089,6.3-15.577c0.741-5.133,1.898-10.348,0.413-15.648
		c-0.857-3.058-2.081-5.686-4.865-7.688c-2.307-1.658-3.568-1.619-4.711,0.859c-1.087,2.358-2.103,4.937-2.172,7.44
		c-0.299,10.893-0.2,21.794-0.346,32.691C104.142,52.904,103.708,55.382,103.459,57.862z M89.258,59.969
		c0.265,0.083,0.529,0.165,0.794,0.247c1.764-3.253,3.497-6.52,5.297-9.756c2.771-4.984,5.575-10.086,6.287-15.574
		c0.666-5.137,1.916-10.351,0.435-15.653c-0.855-3.06-2.084-5.684-4.865-7.688c-2.307-1.663-3.569-1.625-4.71,0.85
		c-1.088,2.358-2.105,4.937-2.174,7.439c-0.3,10.893-0.201,21.793-0.347,32.689C89.941,55.008,89.507,57.487,89.258,59.969z
		 M45.202,68.56c0.151,0.062,0.303,0.124,0.455,0.186c0.594-0.638,1.345-1.204,1.755-1.924c2.65-4.664,5.585-9.235,7.716-14.085
		c1.809-4.118,2.9-8.545,2.574-13.077c-0.153-2.131-0.222-4.336-0.91-6.351c-0.805-2.357-2.117-4.604-3.458-6.776
		c-0.671-1.086-3.199-1.228-4.099-0.299c-0.981,1.013-2.118,2.182-2.383,3.419c-0.74,3.461-1.362,6.984-1.491,10.498
		c-0.249,6.786-0.13,13.582-0.157,20.374C45.193,63.203,45.202,65.882,45.202,68.56z M85.564,81.76
		c3.907-4.822,7.65-9.379,11.311-13.989c1.53-1.927,3.541-3.815,4.169-5.989c1.043-3.609,1.308-7.424,1.597-11.171
		c0.238-3.09,0.036-6.206,0.029-9.31c-0.002-0.841,0-1.682,0-2.98c-1.427,2.982-2.569,5.485-3.814,7.947
		c-2.019,3.992-4.063,7.974-6.174,11.928c-2.041,3.823-4.598,7.44-5.062,11.825c-0.2,1.887-0.934,3.724-1.272,5.606
		C86.001,77.555,85.842,79.511,85.564,81.76z M39.71,99.357c-0.165-0.023-0.329-0.047-0.493-0.07
		c-1.435,2.013-2.985,3.969-4.282,6.049c-3.988,6.398-8.264,12.686-10.757,19.721c-1.026,2.898-1.811,5.873-2.473,8.854
		c-0.144,0.648,0.529,1.662,1.171,2.137c0.319,0.238,1.61-0.186,2.126-0.623c1.044-0.887,2.053-1.896,2.734-3.02
		c2.353-3.881,4.835-7.729,6.734-11.787c1.595-3.41,2.563-7.072,3.578-10.676c0.599-2.125,0.757-4.35,1.094-6.531
		C39.351,102.062,39.522,100.709,39.71,99.357z M154.473,56.528c0.059,2.709,0.79,5.177,2.393,7.425
		c0.345,0.483,0.914,0.839,1.38,1.254c0.417-0.47,1.058-0.888,1.212-1.418c0.703-2.425,1.177-4.905,1.916-7.321
		c0.528-1.728-0.03-3.195-1.047-4.526c-1.485-1.943-3.855-1.765-4.864,0.417C154.866,53.65,154.786,55.132,154.473,56.528z
		 M221.39,43.73c0.103,0.149,0.205,0.298,0.307,0.447c3.092-1.702,6.223-3.351,9.24-5.152c0.545-0.324,0.626-1.267,0.921-1.923
		c-0.938-0.128-2.06-0.617-2.783-0.324C225.552,38.203,223.396,40.922,221.39,43.73z M203.043,60.878
		c4.504-0.57,7.391-3.312,6.658-6.208C207.514,56.71,205.385,58.695,203.043,60.878z"/>
    <path fill-rule="evenodd" clip-rule="evenodd" d="M117.164,102.27c-0.188,3.271-2.445,5.256-5.41,6.865
		c3.114,1.492,4.536,3.74,4.479,6.758c-0.022,1.17-0.126,2.361,0.056,3.51c0.289,1.818,0.787,3.611,1.242,5.611
		c-2.454,0-5.128,0.109-7.774-0.09c-0.559-0.041-1.34-1.18-1.443-1.881c-0.247-1.676-0.1-3.393-0.204-5.088
		c-0.256-4.176-1.349-5.758-6.287-5.605c-2.488,0.076-4.981,0.014-7.801,0.014c0,1.77,0,3.439,0,5.107
		c0,2.053-0.037,4.104,0.015,6.154c0.024,0.932-0.259,1.428-1.413,1.406c-2.095-0.039-4.191-0.012-6.455-0.012
		c0-11.5,0-22.889,0-34.447c0.507-0.031,1.074-0.097,1.642-0.098c6.047-0.008,12.095-0.023,18.142,0.001
		c6.078,0.024,10.038,3.028,11.171,8.368c0.143,0.673,0.499,1.311,0.628,1.639c1.655-2.105,3.26-4.429,5.183-6.518
		c1.971-2.142,4.701-3.281,7.813-3.594c2.191-0.219,4.385-0.566,6.579-0.574c7.621-0.029,14.478,4.704,15.92,11.42
		c0.764,3.56,1.155,7.361,0.621,10.924c-0.88,5.863-4.299,10.648-10.935,12.576c-3.697,1.076-7.608,1.451-11.691,0.574
		c-3.645-0.783-6.761-1.973-9.195-4.488c-2.498-2.582-4.229-5.512-4.379-8.973c-0.137-3.162-0.029-6.332-0.029-9.498
		C117.48,102.311,117.322,102.29,117.164,102.27z M146.361,107.811c-0.337-1.703-0.612-3.418-1.024-5.107
		c-0.76-3.121-4.082-5.965-7.454-6.475c-4.181-0.632-8.732,0.98-10.584,3.997c-2.632,4.285-2.641,8.806-0.899,13.345
		c2.391,6.23,11.596,7.711,16.433,3.248C145.489,114.369,146.283,111.215,146.361,107.811z M94.109,105.92
		c3.769,0,7.305,0.061,10.838-0.023c2.122-0.053,3.921-1.738,4.048-3.535c0.203-2.867-1.017-5.175-3.335-5.324
		c-3.822-0.244-7.679-0.065-11.551-0.065C94.109,100.011,94.109,102.863,94.109,105.92z"/>
    <path fill-rule="evenodd" clip-rule="evenodd" d="M328.385,125.023c0-11.566,0-22.916,0-34.525c2.684,0,5.349-0.066,8.003,0.059
		c0.487,0.023,1.049,0.754,1.374,1.262c4.621,7.199,9.206,14.418,14.178,21.609c0.049-0.654,0.14-1.307,0.141-1.961
		c0.011-6.387,0.056-12.773-0.03-19.157c-0.02-1.483,0.501-1.994,2.125-1.859c1.238,0.102,2.501,0.089,3.742,0.003
		c1.526-0.105,2.027,0.371,2.01,1.782c-0.082,6.618-0.035,13.238-0.035,19.858c0,0.691,0,1.381,0,2.289
		c2.064,0,3.949,0.039,5.832-0.012c1.225-0.033,1.898,0.26,2.177,1.471c0.505,2.193,2.718,3.107,4.715,3.266
		c2.784,0.219,5.691-0.109,8.452-0.613c1.841-0.334,2.734-1.762,2.541-3.602c-0.173-1.662-1.53-2.18-2.947-2.523
		c-4.104-0.996-8.261-1.82-12.356-2.84c-4.253-1.061-7.646-3.445-7.736-8.449c-0.088-4.903,2.057-8.383,7.231-10.088
		c3.674-1.211,7.434-1.697,11.426-0.783c3.013,0.689,5.707,1.601,7.86,3.652c2.084,1.988,3.157,4.27,2.864,7.238
		c-2.18,0-4.337,0.094-6.47-0.068c-0.508-0.039-0.935-0.928-1.399-1.426c-0.797-0.853-1.407-2.043-2.429-2.495
		c-3.118-1.38-6.434-1.437-9.604-0.061c-1.55,0.673-2.473,1.879-2.153,3.547c0.284,1.489,1.434,2.218,2.98,2.563
		c4.189,0.939,8.374,1.893,12.567,2.816c4.141,0.913,7.496,3.971,7.989,7.494c0.575,4.119-1.312,7.816-5.288,10.012
		c-3.942,2.176-8.487,2.738-12.952,2.145c-4.113-0.545-8.429-1.252-11.049-4.773c-0.649-0.873-1.259-1.77-2.253-2.672
		c0,1.775-0.063,3.551,0.023,5.322c0.056,1.143-0.393,1.648-1.679,1.52c-0.065-0.008-0.132-0.002-0.197,0
		c-6.491,0.141-6.431,0.111-9.938-5.492c-3.672-5.869-7.476-11.672-11.231-17.5c-0.043-0.066-0.218-0.066-0.582-0.168
		c-0.048,0.713-0.128,1.378-0.129,2.043c-0.01,6.387-0.058,12.773,0.03,19.156c0.021,1.559-0.522,2.096-2.249,1.984
		C332.18,124.936,330.405,125.023,328.385,125.023z"/>
    <path fill-rule="evenodd" clip-rule="evenodd" d="M154.934,90.48c6.495,0,12.829-0.346,19.092,0.097
		c6.306,0.446,10.656,3.686,12.424,9.278c0.5,1.58,0.774,3.218,1.347,4.85c0-4.637,0-9.273,0-14.193
		c2.772,0,5.307-0.062,7.826,0.075c0.332,0.019,0.845,1.054,0.851,1.622c0.061,6.328,0.035,12.657,0.042,18.986
		c0.001,0.879,0.071,1.758,0.075,2.635c0.013,2.617,1.355,4.529,4.181,5.164c4.809,1.08,9.857,0.092,9.98-5.732
		c0.145-6.793,0.055-13.592,0.067-20.39c0.001-0.697,0-1.394,0-2.388c2.583,0,5.053-0.05,7.514,0.055
		c0.371,0.016,1.003,0.756,1.007,1.164c0.063,6.562,0.327,13.141-0.085,19.682c-0.184,2.906,0.022,6.062-2.022,8.758
		c-2,2.635-4.51,4.494-8.115,4.945c-2.123,0.266-4.264,0.627-6.391,0.594c-3.576-0.055-7.017-0.725-9.97-2.74
		c-2.333-1.594-3.592-3.742-4.068-6.248c-0.458-2.408-0.739-4.842-1.09-7.209c-0.36,1.553-0.653,3.207-1.133,4.816
		c-1.262,4.242-3.62,7.777-8.411,9.533c-1.415,0.518-2.937,1.09-4.422,1.121c-6.167,0.125-12.34,0.051-18.699,0.051
		C154.934,113.5,154.934,102.116,154.934,90.48z M162.881,96.938c0,7.338,0,14.407,0,21.651c3.043,0,5.992,0.125,8.92-0.035
		c2.769-0.152,6.186-2.799,6.549-5.197c0.478-3.15,0.83-6.35,0.765-9.521c-0.075-3.633-2.75-6.506-6.338-6.835
		C169.544,96.705,166.25,96.938,162.881,96.938z"/>
    <path fill-rule="evenodd" clip-rule="evenodd" d="M289.742,125.02c-2.239,0-4.331-0.016-6.424,0.004
		c-1.545,0.018-1.373-0.947-1.373-1.826c-0.001-8.027-0.001-16.055-0.001-24.082c0-0.684,0-1.365,0-2.135c-3.521,0-6.778,0-10.211,0
		c0,9.286,0,18.518,0,27.896c-2.747,0-5.325,0-8.098,0c0-9.246,0-18.476,0-27.844c-3.489,0-6.789,0-10.158,0
		c0.425,1.477,0.835,2.906,1.312,4.566c-2.812,0-5.509,0-8.247,0c-1.499-3.719-4.061-5.719-9.329-5.43
		c-2.995,0.164-6.635,2.549-7.538,6.234c-1.173,4.791-1.761,9.543,1.61,13.873c2.229,2.859,5.606,3.545,9.161,2.896
		c3.114-0.568,5.061-2.562,5.85-5.359c0.062-0.217,0.138-0.432,0.236-0.734c2.57,0,5.105,0,7.85,0
		c-0.261,3.783-2.158,6.768-5.178,9.102c-4.393,3.396-9.5,4.164-15.202,3.088c-4.054-0.764-7.406-2.275-9.782-5.281
		c-4.157-5.26-4.688-11.076-3.344-17.247c0.876-4.019,2.765-7.455,6.425-9.904c4.431-2.965,9.39-3.648,14.873-2.624
		c3.665,0.684,6.766,1.934,9.579,4.697c0-1.615,0-2.908,0-4.316c12.799,0,25.316,0,37.989,0
		C289.742,101.996,289.742,113.385,289.742,125.02z"/>
    <path fill-rule="evenodd" clip-rule="evenodd" d="M327.999,107.588c0.011,5.467-1.521,10.33-6.004,14.189
		c-2.16,1.857-4.696,3.172-7.825,3.371c-1.794,0.115-3.575,0.557-5.361,0.547c-7.741-0.035-13.629-3.062-16.405-9.549
		c-1.534-3.586-2.528-7.424-1.431-11.567c0.81-3.062,1.33-6.107,3.488-8.669c2.491-2.957,5.598-5.119,9.896-5.546
		c2.062-0.204,4.144-0.669,6.182-0.549c7.487,0.444,13.857,3.106,16.337,11.432C327.488,103.304,327.637,105.471,327.999,107.588z
		 M319.918,107.807c-0.335-1.703-0.607-3.42-1.019-5.109c-0.759-3.122-4.086-5.964-7.46-6.47c-4.203-0.629-8.726,0.975-10.578,4.005
		c-2.582,4.223-2.57,8.652-0.956,13.178c2.311,6.482,12.203,7.992,16.872,3.025C319.08,113.986,319.853,111.021,319.918,107.807z"/>
    <path fill-rule="evenodd" clip-rule="evenodd" d="M63.183,113.4c0,3.145-0.086,6.416,0.037,9.678
		c0.06,1.58-0.563,2.086-2.266,1.969c-1.567-0.109-3.152-0.049-4.728-0.018c-1.099,0.021-1.503-0.408-1.501-1.375
		c0.019-10.6,0.022-21.201-0.004-31.803c-0.002-1.113,0.569-1.396,1.688-1.391c5.716,0.023,11.474-0.377,17.136,0.113
		c6.528,0.565,10.513,3.203,11.027,10.09c0.281,3.77-0.278,7.465-3.898,10c-1.248,0.875-2.937,1.518-4.508,1.705
		C71.991,112.867,67.772,113.059,63.183,113.4z M63.277,106.631c3.064,0,5.882,0.068,8.694-0.023
		c2.234-0.07,4.219-1.941,4.604-4.107c0.352-1.984-0.748-4.566-2.679-4.897c-3.45-0.591-7.008-0.681-10.619-0.989
		C63.277,100.237,63.277,103.326,63.277,106.631z"/>
    <path fill-rule="evenodd" clip-rule="evenodd" d="M487.779,118.686c-0.542,1.16-1.082,2.32-1.787,3.83
		c-3.62-3.838-2.365-8.365-4.234-12.629c-0.697,0.811-1.484,1.367-1.735,2.076c-1.2,3.391-2.238,6.824-3.372,10.234
		c-0.233,0.701-0.627,1.361-1.146,2.461c-1.733-6.145,1.74-11.998-0.69-18.034c-5.296,4.821-6.564,11.021-8.481,16.925
		c-1.383,0.021-1.291-0.514-1.152-1.463c0.67-4.588,2.588-9.033,1.996-13.764c-0.028-0.229-0.048-0.459-0.105-1.023
		c-0.547,0.557-1.011,0.895-1.28,1.328c-1.757,2.838-3.365,5.752-5.238,8.525c-1.288,1.908-2.729,3.799-4.461,5.385
		c-1.633,1.496-3.666,2.682-5.655,3.822c-1.349,0.771-3.057,1.496-4.453,0.219c-1.28-1.172-1.871-2.717-1.299-4.436
		c0.199-0.6,0.309-1.223,0.545-2.176c-1.216,0.705-2.246,1.09-2.949,1.75c-2.604,2.449-5.858,3.662-9.399,4.67
		c-2.703,0.77-4.571,0.918-6.914-1.072c-1.825-1.551-4.764-2.127-7.285-2.943c-4.207-1.363-8.453-2.623-13.046-2.473
		c-2.928,0.096-2.932,0.027-2.953,2.629c-0.004,0.518-0.001,1.037-0.001,1.771c-2.425,0-4.706,0.053-6.979-0.053
		c-0.357-0.016-0.912-0.723-0.964-1.148c-0.138-1.16,0-2.344-0.082-3.512c-0.038-0.537-0.216-1.127-0.534-1.578
		c-1.6-2.271-1.514-3.652,1.174-4.998c2.475-1.238,5.235-2.373,8.002-2.725c4.721-0.602,9.426,0.004,14.136,1.053
		c3.61,0.805,7.49,0.773,11.254,0.82c1.119,0.016,2.246-0.977,3.383-1.482c1.303-0.578,2.603-1.17,3.947-1.658
		c0.272-0.1,0.793,0.18,1.09,0.402c0.087,0.066-0.11,0.658-0.34,0.795c-0.843,0.504-1.7,1.158-2.648,1.328
		c-3.513,0.627-5.041,3.055-6.196,5.566c-0.757,1.645-0.854,3.584-0.926,5.4c-0.029,0.752,0.677,2.109,1.225,2.186
		c1.408,0.195,3.416,0.309,4.279-0.41c1.857-1.547,3.141-3.643,4.675-5.502c0.349-0.422,0.76-0.803,1.142-1.203
		c0.182,0.113,0.362,0.227,0.544,0.338c-1.518,2.277-3.035,4.555-4.846,7.271c5.779-2.127,9.86-5.416,12.989-9.779
		c0.221,0.09,0.439,0.18,0.659,0.27c-0.149,0.771-0.287,1.545-0.449,2.314c-0.415,1.969-0.949,3.924-1.224,5.906
		c-0.199,1.434,0.899,2.117,2.348,1.787c1.255-0.285,2.479-0.883,3.517-1.58c0.286-0.191,0.083-1.352-0.273-1.857
		c-2.358-3.342-3.331-6.807-1.868-10.691c0.486-1.291,1.401-1.904,2.764-2.076c1.659-0.207,3.211,0.469,3.641,1.748
		c0.555,1.652,0.527,3.488,0.533,5.246c0.005,1.121-0.384,2.242-0.596,3.365c0.202,0.086,0.405,0.172,0.607,0.258
		c1.155-1.492,2.417-2.928,3.441-4.486c1.899-2.895,3.617-5.883,5.517-8.777c0.363-0.555,1.216-0.855,1.842-1.273
		c0.238,0.627,0.653,1.249,0.682,1.885c0.09,1.982,0.033,3.971,0.033,6.344c1.366-2.309,2.549-4.301,3.728-6.297
		c0.092-0.155,0.13-0.348,0.256-0.473c0.873-0.859,1.62-2.412,3.106-1.715c0.83,0.389,1.332,1.875,1.405,2.9
		c0.191,2.672,0.064,5.361,0.421,8.104c0.64-1.727,1.224-3.473,1.938-5.176c0.395-0.941,0.88-1.898,1.557-2.689
		c0.732-0.859,2.145-0.584,2.396,0.418c0.384,1.518,0.595,3.07,0.919,4.602c0.461,2.178,0.958,4.352,1.465,6.639
		c0.961-0.639,1.623-1.078,2.283-1.518L487.779,118.686z M428.486,113.418c-4.288-0.414-8.461-0.627-12.552-1.26
		c-4.862-0.75-9.686-2.051-14.573-0.475c-2.13,0.688-4.154,1.715-6.063,2.814c-0.515,0.297-0.649,1.441-0.549,2.15
		c0.063,0.455,0.829,1.117,1.361,1.186c2.914,0.369,5.847,0.715,8.784,0.822c5.367,0.199,10.46,1.293,15.362,3.207
		c1.618,0.633,3.279,1.178,5.282,1.891C424.808,119.701,426.461,116.482,428.486,113.418z M450.485,115.572
		c-0.06,0.02-0.119,0.039-0.179,0.061c0.42,1.504,0.744,3.039,1.312,4.5c0.215,0.551,0.994,0.928,1.516,1.385
		c0.425-0.389,1.15-0.738,1.225-1.176c0.422-2.506,0.845-5.027,0.941-7.555c0.045-1.182-1.029-1.914-2.543-1.869
		c-1.518,0.043-2.021,0.834-2.094,2.027C450.612,113.82,450.545,114.695,450.485,115.572z"/>
    <path fill-rule="evenodd" clip-rule="evenodd" d="M52.95,108.91c0.462,4.074,0.462,4.074-3.855,4.074
		c-1.709,0-3.428-0.109-5.123,0.027c-1.83,0.148-2.335-0.564-2.166-2.025c0.074-0.635,0.013-1.281,0.013-2.076
		C45.556,108.91,49.187,108.91,52.95,108.91z"/>
    <path fill-rule="evenodd" clip-rule="evenodd" d="M487.652,118.586c0.604-1.188,1.207-2.377,1.811-3.566
		c0.212,0.1,0.424,0.199,0.636,0.299c-0.279,1.346-0.792,2.588-2.319,3.367L487.652,118.586z"/>
</g>
</svg>
